<mxfile host="Electron" agent="Mozilla/5.0 (Windows NT 10.0; Win64; x64) AppleWebKit/537.36 (KHTML, like Gecko) draw.io/24.7.17 Chrome/128.0.6613.36 Electron/32.0.1 Safari/537.36" version="24.7.17">
  <diagram name="Страница — 1" id="aamezZmQvxMuSM1Q3HjA">
    <mxGraphModel dx="2300" dy="1230" grid="1" gridSize="10" guides="1" tooltips="1" connect="1" arrows="1" fold="1" page="1" pageScale="1" pageWidth="827" pageHeight="1169" math="0" shadow="0">
      <root>
        <mxCell id="0" />
        <mxCell id="1" parent="0" />
        <mxCell id="BcmVmxXIoH-1" value="Main" style="rounded=1;whiteSpace=wrap;html=1;" parent="1" vertex="1">
          <mxGeometry x="40" y="40" width="80" height="40" as="geometry" />
        </mxCell>        <mxCell id="BcmVmxXIoH-2" value="Default_value" style="rounded=0;whiteSpace=wrap;html=1;" parent="1" vertex="1">
          <mxGeometry x="120" y="120" width="160" height="40" as="geometry" />
        </mxCell>        <mxCell id="BcmVmxXIoH-3" value="" style="rounded=0;whiteSpace=wrap;html=1;" parent="1" vertex="1">
          <mxGeometry x="620" y="120" width="40" height="40" as="geometry" />
        </mxCell>        <mxCell id="BcmVmxXIoH-4" value="Функция для сброса уставок до стандартных" style="text;html=1;align=center;verticalAlign=middle;whiteSpace=wrap;rounded=0;strokeColor=none;fillColor=default;" vertex="1" parent="1">
          <mxGeometry x="630" y="119" width="160" height="42" as="geometry" />
        </mxCell>        <mxCell id="BcmVmxXIoH-5" value="" style="endArrow=none;html=1;rounded=0;" edge="1" parent="1">
          <mxGeometry width="50" height="50" relative="1" as="geometry">
            <mxPoint x="80" y="140" as="sourcePoint" />
            <mxPoint x="120" y="140" as="targetPoint" />
          </mxGeometry>
        </mxCell>        <mxCell id="BcmVmxXIoH-6" value="" style="endArrow=none;html=1;rounded=0;" edge="1" parent="1">
          <mxGeometry width="50" height="50" relative="1" as="geometry">
            <mxPoint x="280" y="140" as="sourcePoint" />
            <mxPoint x="620" y="140" as="targetPoint" />
          </mxGeometry>
        </mxCell>        <mxCell id="BcmVmxXIoH-7" value="Persist" style="rounded=0;whiteSpace=wrap;html=1;" parent="1" vertex="1">
          <mxGeometry x="120" y="200" width="160" height="40" as="geometry" />
        </mxCell>        <mxCell id="BcmVmxXIoH-8" value="" style="rounded=0;whiteSpace=wrap;html=1;" parent="1" vertex="1">
          <mxGeometry x="620" y="200" width="40" height="40" as="geometry" />
        </mxCell>        <mxCell id="BcmVmxXIoH-9" value="Функция для сохранения уставок в памяти ПЛК" style="text;html=1;align=center;verticalAlign=middle;whiteSpace=wrap;rounded=0;strokeColor=none;fillColor=default;" vertex="1" parent="1">
          <mxGeometry x="630" y="199" width="160" height="42" as="geometry" />
        </mxCell>        <mxCell id="BcmVmxXIoH-10" value="" style="endArrow=none;html=1;rounded=0;" edge="1" parent="1">
          <mxGeometry width="50" height="50" relative="1" as="geometry">
            <mxPoint x="80" y="220" as="sourcePoint" />
            <mxPoint x="120" y="220" as="targetPoint" />
          </mxGeometry>
        </mxCell>        <mxCell id="BcmVmxXIoH-11" value="" style="endArrow=none;html=1;rounded=0;" edge="1" parent="1">
          <mxGeometry width="50" height="50" relative="1" as="geometry">
            <mxPoint x="280" y="220" as="sourcePoint" />
            <mxPoint x="620" y="220" as="targetPoint" />
          </mxGeometry>
        </mxCell>        <mxCell id="BcmVmxXIoH-12" value="IM" style="rounded=0;whiteSpace=wrap;html=1;" parent="1" vertex="1">
          <mxGeometry x="120" y="280" width="160" height="40" as="geometry" />
        </mxCell>        <mxCell id="BcmVmxXIoH-13" value="" style="rounded=0;whiteSpace=wrap;html=1;" parent="1" vertex="1">
          <mxGeometry x="620" y="280" width="40" height="40" as="geometry" />
        </mxCell>        <mxCell id="BcmVmxXIoH-14" value="Папка с функциями управления механизмами" style="text;html=1;align=center;verticalAlign=middle;whiteSpace=wrap;rounded=0;strokeColor=none;fillColor=default;" vertex="1" parent="1">
          <mxGeometry x="630" y="279" width="160" height="42" as="geometry" />
        </mxCell>        <mxCell id="BcmVmxXIoH-15" value="" style="endArrow=none;html=1;rounded=0;" edge="1" parent="1">
          <mxGeometry width="50" height="50" relative="1" as="geometry">
            <mxPoint x="80" y="300" as="sourcePoint" />
            <mxPoint x="120" y="300" as="targetPoint" />
          </mxGeometry>
        </mxCell>        <mxCell id="BcmVmxXIoH-16" value="" style="endArrow=none;html=1;rounded=0;" edge="1" parent="1">
          <mxGeometry width="50" height="50" relative="1" as="geometry">
            <mxPoint x="280" y="300" as="sourcePoint" />
            <mxPoint x="620" y="300" as="targetPoint" />
          </mxGeometry>
        </mxCell>        <mxCell id="BcmVmxXIoH-17" value="Input" style="rounded=0;whiteSpace=wrap;html=1;" parent="1" vertex="1">
          <mxGeometry x="120" y="360" width="160" height="40" as="geometry" />
        </mxCell>        <mxCell id="BcmVmxXIoH-18" value="" style="rounded=0;whiteSpace=wrap;html=1;" parent="1" vertex="1">
          <mxGeometry x="620" y="360" width="40" height="40" as="geometry" />
        </mxCell>        <mxCell id="BcmVmxXIoH-19" value="Папка с функциями обработки внешних данных" style="text;html=1;align=center;verticalAlign=middle;whiteSpace=wrap;rounded=0;strokeColor=none;fillColor=default;" vertex="1" parent="1">
          <mxGeometry x="630" y="359" width="160" height="42" as="geometry" />
        </mxCell>        <mxCell id="BcmVmxXIoH-20" value="" style="endArrow=none;html=1;rounded=0;" edge="1" parent="1">
          <mxGeometry width="50" height="50" relative="1" as="geometry">
            <mxPoint x="80" y="380" as="sourcePoint" />
            <mxPoint x="120" y="380" as="targetPoint" />
          </mxGeometry>
        </mxCell>        <mxCell id="BcmVmxXIoH-21" value="" style="endArrow=none;html=1;rounded=0;" edge="1" parent="1">
          <mxGeometry width="50" height="50" relative="1" as="geometry">
            <mxPoint x="280" y="380" as="sourcePoint" />
            <mxPoint x="620" y="380" as="targetPoint" />
          </mxGeometry>
        </mxCell>        <mxCell id="BcmVmxXIoH-22" value="AI" style="rounded=0;whiteSpace=wrap;html=1;" parent="1" vertex="1">
          <mxGeometry x="240" y="440" width="160" height="40" as="geometry" />
        </mxCell>        <mxCell id="BcmVmxXIoH-23" value="" style="rounded=0;whiteSpace=wrap;html=1;" parent="1" vertex="1">
          <mxGeometry x="620" y="440" width="40" height="40" as="geometry" />
        </mxCell>        <mxCell id="BcmVmxXIoH-24" value="Папка с функциями обработки входных аналоговых сигналов" style="text;html=1;align=center;verticalAlign=middle;whiteSpace=wrap;rounded=0;strokeColor=none;fillColor=default;" vertex="1" parent="1">
          <mxGeometry x="630" y="439" width="160" height="42" as="geometry" />
        </mxCell>        <mxCell id="BcmVmxXIoH-25" value="" style="endArrow=none;html=1;rounded=0;" edge="1" parent="1">
          <mxGeometry width="50" height="50" relative="1" as="geometry">
            <mxPoint x="200" y="460" as="sourcePoint" />
            <mxPoint x="240" y="460" as="targetPoint" />
          </mxGeometry>
        </mxCell>        <mxCell id="BcmVmxXIoH-26" value="" style="endArrow=none;html=1;rounded=0;" edge="1" parent="1">
          <mxGeometry width="50" height="50" relative="1" as="geometry">
            <mxPoint x="400" y="460" as="sourcePoint" />
            <mxPoint x="620" y="460" as="targetPoint" />
          </mxGeometry>
        </mxCell>        <mxCell id="BcmVmxXIoH-27" value="CI" style="rounded=0;whiteSpace=wrap;html=1;" parent="1" vertex="1">
          <mxGeometry x="240" y="520" width="160" height="40" as="geometry" />
        </mxCell>        <mxCell id="BcmVmxXIoH-28" value="" style="rounded=0;whiteSpace=wrap;html=1;" parent="1" vertex="1">
          <mxGeometry x="620" y="520" width="40" height="40" as="geometry" />
        </mxCell>        <mxCell id="BcmVmxXIoH-29" value="Папка с функциями обработки входных цифровых сигналов" style="text;html=1;align=center;verticalAlign=middle;whiteSpace=wrap;rounded=0;strokeColor=none;fillColor=default;" vertex="1" parent="1">
          <mxGeometry x="630" y="519" width="160" height="42" as="geometry" />
        </mxCell>        <mxCell id="BcmVmxXIoH-30" value="" style="endArrow=none;html=1;rounded=0;" edge="1" parent="1">
          <mxGeometry width="50" height="50" relative="1" as="geometry">
            <mxPoint x="200" y="540" as="sourcePoint" />
            <mxPoint x="240" y="540" as="targetPoint" />
          </mxGeometry>
        </mxCell>        <mxCell id="BcmVmxXIoH-31" value="" style="endArrow=none;html=1;rounded=0;" edge="1" parent="1">
          <mxGeometry width="50" height="50" relative="1" as="geometry">
            <mxPoint x="400" y="540" as="sourcePoint" />
            <mxPoint x="620" y="540" as="targetPoint" />
          </mxGeometry>
        </mxCell>        <mxCell id="BcmVmxXIoH-32" value="ModBus" style="rounded=0;whiteSpace=wrap;html=1;" parent="1" vertex="1">
          <mxGeometry x="240" y="600" width="160" height="40" as="geometry" />
        </mxCell>        <mxCell id="BcmVmxXIoH-33" value="" style="rounded=0;whiteSpace=wrap;html=1;" parent="1" vertex="1">
          <mxGeometry x="620" y="600" width="40" height="40" as="geometry" />
        </mxCell>        <mxCell id="BcmVmxXIoH-34" value="Папка с функциями обработки сигналов ModBus" style="text;html=1;align=center;verticalAlign=middle;whiteSpace=wrap;rounded=0;strokeColor=none;fillColor=default;" vertex="1" parent="1">
          <mxGeometry x="630" y="599" width="160" height="42" as="geometry" />
        </mxCell>        <mxCell id="BcmVmxXIoH-35" value="" style="endArrow=none;html=1;rounded=0;" edge="1" parent="1">
          <mxGeometry width="50" height="50" relative="1" as="geometry">
            <mxPoint x="200" y="620" as="sourcePoint" />
            <mxPoint x="240" y="620" as="targetPoint" />
          </mxGeometry>
        </mxCell>        <mxCell id="BcmVmxXIoH-36" value="" style="endArrow=none;html=1;rounded=0;" edge="1" parent="1">
          <mxGeometry width="50" height="50" relative="1" as="geometry">
            <mxPoint x="400" y="620" as="sourcePoint" />
            <mxPoint x="620" y="620" as="targetPoint" />
          </mxGeometry>
        </mxCell>        <mxCell id="BcmVmxXIoH-37" value="" style="endArrow=none;html=1;rounded=0;" edge="1" parent="1">
          <mxGeometry width="50" height="50" relative="1" as="geometry">
            <mxPoint x="200" y="400" as="sourcePoint" />
            <mxPoint x="200" y="620" as="targetPoint" />
          </mxGeometry>
        </mxCell>        <mxCell id="BcmVmxXIoH-38" value="Lib" style="rounded=0;whiteSpace=wrap;html=1;" parent="1" vertex="1">
          <mxGeometry x="120" y="680" width="160" height="40" as="geometry" />
        </mxCell>        <mxCell id="BcmVmxXIoH-39" value="" style="rounded=0;whiteSpace=wrap;html=1;" parent="1" vertex="1">
          <mxGeometry x="620" y="680" width="40" height="40" as="geometry" />
        </mxCell>        <mxCell id="BcmVmxXIoH-40" value="Папка с библиотеками для функций" style="text;html=1;align=center;verticalAlign=middle;whiteSpace=wrap;rounded=0;strokeColor=none;fillColor=default;" vertex="1" parent="1">
          <mxGeometry x="630" y="679" width="160" height="42" as="geometry" />
        </mxCell>        <mxCell id="BcmVmxXIoH-41" value="" style="endArrow=none;html=1;rounded=0;" edge="1" parent="1">
          <mxGeometry width="50" height="50" relative="1" as="geometry">
            <mxPoint x="80" y="700" as="sourcePoint" />
            <mxPoint x="120" y="700" as="targetPoint" />
          </mxGeometry>
        </mxCell>        <mxCell id="BcmVmxXIoH-42" value="" style="endArrow=none;html=1;rounded=0;" edge="1" parent="1">
          <mxGeometry width="50" height="50" relative="1" as="geometry">
            <mxPoint x="280" y="700" as="sourcePoint" />
            <mxPoint x="620" y="700" as="targetPoint" />
          </mxGeometry>
        </mxCell>        <mxCell id="BcmVmxXIoH-43" value="Output" style="rounded=0;whiteSpace=wrap;html=1;" parent="1" vertex="1">
          <mxGeometry x="120" y="760" width="160" height="40" as="geometry" />
        </mxCell>        <mxCell id="BcmVmxXIoH-44" value="" style="rounded=0;whiteSpace=wrap;html=1;" parent="1" vertex="1">
          <mxGeometry x="620" y="760" width="40" height="40" as="geometry" />
        </mxCell>        <mxCell id="BcmVmxXIoH-45" value="Папка с функциями обработки выходных сигналов" style="text;html=1;align=center;verticalAlign=middle;whiteSpace=wrap;rounded=0;strokeColor=none;fillColor=default;" vertex="1" parent="1">
          <mxGeometry x="630" y="759" width="160" height="42" as="geometry" />
        </mxCell>        <mxCell id="BcmVmxXIoH-46" value="" style="endArrow=none;html=1;rounded=0;" edge="1" parent="1">
          <mxGeometry width="50" height="50" relative="1" as="geometry">
            <mxPoint x="80" y="780" as="sourcePoint" />
            <mxPoint x="120" y="780" as="targetPoint" />
          </mxGeometry>
        </mxCell>        <mxCell id="BcmVmxXIoH-47" value="" style="endArrow=none;html=1;rounded=0;" edge="1" parent="1">
          <mxGeometry width="50" height="50" relative="1" as="geometry">
            <mxPoint x="280" y="780" as="sourcePoint" />
            <mxPoint x="620" y="780" as="targetPoint" />
          </mxGeometry>
        </mxCell>        <mxCell id="BcmVmxXIoH-48" value="AO" style="rounded=0;whiteSpace=wrap;html=1;" parent="1" vertex="1">
          <mxGeometry x="240" y="840" width="160" height="40" as="geometry" />
        </mxCell>        <mxCell id="BcmVmxXIoH-49" value="" style="rounded=0;whiteSpace=wrap;html=1;" parent="1" vertex="1">
          <mxGeometry x="620" y="840" width="40" height="40" as="geometry" />
        </mxCell>        <mxCell id="BcmVmxXIoH-50" value="Папка с функциями обработки выходных аналоговых сигналов" style="text;html=1;align=center;verticalAlign=middle;whiteSpace=wrap;rounded=0;strokeColor=none;fillColor=default;" vertex="1" parent="1">
          <mxGeometry x="630" y="839" width="160" height="42" as="geometry" />
        </mxCell>        <mxCell id="BcmVmxXIoH-51" value="" style="endArrow=none;html=1;rounded=0;" edge="1" parent="1">
          <mxGeometry width="50" height="50" relative="1" as="geometry">
            <mxPoint x="200" y="860" as="sourcePoint" />
            <mxPoint x="240" y="860" as="targetPoint" />
          </mxGeometry>
        </mxCell>        <mxCell id="BcmVmxXIoH-52" value="" style="endArrow=none;html=1;rounded=0;" edge="1" parent="1">
          <mxGeometry width="50" height="50" relative="1" as="geometry">
            <mxPoint x="400" y="860" as="sourcePoint" />
            <mxPoint x="620" y="860" as="targetPoint" />
          </mxGeometry>
        </mxCell>        <mxCell id="BcmVmxXIoH-53" value="" style="endArrow=none;html=1;rounded=0;" edge="1" parent="1">
          <mxGeometry width="50" height="50" relative="1" as="geometry">
            <mxPoint x="200" y="800" as="sourcePoint" />
            <mxPoint x="200" y="860" as="targetPoint" />
          </mxGeometry>
        </mxCell>        <mxCell id="BcmVmxXIoH-54" value="Regim" style="rounded=0;whiteSpace=wrap;html=1;" parent="1" vertex="1">
          <mxGeometry x="120" y="920" width="160" height="40" as="geometry" />
        </mxCell>        <mxCell id="BcmVmxXIoH-55" value="" style="rounded=0;whiteSpace=wrap;html=1;" parent="1" vertex="1">
          <mxGeometry x="620" y="920" width="40" height="40" as="geometry" />
        </mxCell>        <mxCell id="BcmVmxXIoH-56" value="Папка с функциями включения режимов" style="text;html=1;align=center;verticalAlign=middle;whiteSpace=wrap;rounded=0;strokeColor=none;fillColor=default;" vertex="1" parent="1">
          <mxGeometry x="630" y="919" width="160" height="42" as="geometry" />
        </mxCell>        <mxCell id="BcmVmxXIoH-57" value="" style="endArrow=none;html=1;rounded=0;" edge="1" parent="1">
          <mxGeometry width="50" height="50" relative="1" as="geometry">
            <mxPoint x="80" y="940" as="sourcePoint" />
            <mxPoint x="120" y="940" as="targetPoint" />
          </mxGeometry>
        </mxCell>        <mxCell id="BcmVmxXIoH-58" value="" style="endArrow=none;html=1;rounded=0;" edge="1" parent="1">
          <mxGeometry width="50" height="50" relative="1" as="geometry">
            <mxPoint x="280" y="940" as="sourcePoint" />
            <mxPoint x="620" y="940" as="targetPoint" />
          </mxGeometry>
        </mxCell>        <mxCell id="BcmVmxXIoH-59" value="TZBiS" style="rounded=0;whiteSpace=wrap;html=1;" parent="1" vertex="1">
          <mxGeometry x="120" y="1000" width="160" height="40" as="geometry" />
        </mxCell>        <mxCell id="BcmVmxXIoH-60" value="" style="rounded=0;whiteSpace=wrap;html=1;" parent="1" vertex="1">
          <mxGeometry x="620" y="1000" width="40" height="40" as="geometry" />
        </mxCell>        <mxCell id="BcmVmxXIoH-61" value="Папка с функциями защит и сигнализаций" style="text;html=1;align=center;verticalAlign=middle;whiteSpace=wrap;rounded=0;strokeColor=none;fillColor=default;" vertex="1" parent="1">
          <mxGeometry x="630" y="999" width="160" height="42" as="geometry" />
        </mxCell>        <mxCell id="BcmVmxXIoH-62" value="" style="endArrow=none;html=1;rounded=0;" edge="1" parent="1">
          <mxGeometry width="50" height="50" relative="1" as="geometry">
            <mxPoint x="80" y="1020" as="sourcePoint" />
            <mxPoint x="120" y="1020" as="targetPoint" />
          </mxGeometry>
        </mxCell>        <mxCell id="BcmVmxXIoH-63" value="" style="endArrow=none;html=1;rounded=0;" edge="1" parent="1">
          <mxGeometry width="50" height="50" relative="1" as="geometry">
            <mxPoint x="280" y="1020" as="sourcePoint" />
            <mxPoint x="620" y="1020" as="targetPoint" />
          </mxGeometry>
        </mxCell>        <mxCell id="BcmVmxXIoH-64" value="S" style="rounded=0;whiteSpace=wrap;html=1;" parent="1" vertex="1">
          <mxGeometry x="240" y="1240" width="160" height="40" as="geometry" />
        </mxCell>        <mxCell id="BcmVmxXIoH-65" value="" style="rounded=0;whiteSpace=wrap;html=1;" parent="1" vertex="1">
          <mxGeometry x="620" y="1240" width="40" height="40" as="geometry" />
        </mxCell>        <mxCell id="BcmVmxXIoH-66" value="Папка с функциями сигнализаций" style="text;html=1;align=center;verticalAlign=middle;whiteSpace=wrap;rounded=0;strokeColor=none;fillColor=default;" vertex="1" parent="1">
          <mxGeometry x="630" y="1239" width="160" height="42" as="geometry" />
        </mxCell>        <mxCell id="BcmVmxXIoH-67" value="" style="endArrow=none;html=1;rounded=0;" edge="1" parent="1">
          <mxGeometry width="50" height="50" relative="1" as="geometry">
            <mxPoint x="200" y="1260" as="sourcePoint" />
            <mxPoint x="240" y="1260" as="targetPoint" />
          </mxGeometry>
        </mxCell>        <mxCell id="BcmVmxXIoH-68" value="" style="endArrow=none;html=1;rounded=0;" edge="1" parent="1">
          <mxGeometry width="50" height="50" relative="1" as="geometry">
            <mxPoint x="400" y="1260" as="sourcePoint" />
            <mxPoint x="620" y="1260" as="targetPoint" />
          </mxGeometry>
        </mxCell>        <mxCell id="BcmVmxXIoH-69" value="TZB" style="rounded=0;whiteSpace=wrap;html=1;" parent="1" vertex="1">
          <mxGeometry x="240" y="1320" width="160" height="40" as="geometry" />
        </mxCell>        <mxCell id="BcmVmxXIoH-70" value="" style="rounded=0;whiteSpace=wrap;html=1;" parent="1" vertex="1">
          <mxGeometry x="620" y="1320" width="40" height="40" as="geometry" />
        </mxCell>        <mxCell id="BcmVmxXIoH-71" value="Папка с функциями защит" style="text;html=1;align=center;verticalAlign=middle;whiteSpace=wrap;rounded=0;strokeColor=none;fillColor=default;" vertex="1" parent="1">
          <mxGeometry x="630" y="1319" width="160" height="42" as="geometry" />
        </mxCell>        <mxCell id="BcmVmxXIoH-72" value="" style="endArrow=none;html=1;rounded=0;" edge="1" parent="1">
          <mxGeometry width="50" height="50" relative="1" as="geometry">
            <mxPoint x="200" y="1340" as="sourcePoint" />
            <mxPoint x="240" y="1340" as="targetPoint" />
          </mxGeometry>
        </mxCell>        <mxCell id="BcmVmxXIoH-73" value="" style="endArrow=none;html=1;rounded=0;" edge="1" parent="1">
          <mxGeometry width="50" height="50" relative="1" as="geometry">
            <mxPoint x="400" y="1340" as="sourcePoint" />
            <mxPoint x="620" y="1340" as="targetPoint" />
          </mxGeometry>
        </mxCell>        <mxCell id="BcmVmxXIoH-74" value="" style="endArrow=none;html=1;rounded=0;" edge="1" parent="1">
          <mxGeometry width="50" height="50" relative="1" as="geometry">
            <mxPoint x="200" y="1040" as="sourcePoint" />
            <mxPoint x="200" y="1080" as="targetPoint" />
          </mxGeometry>
        </mxCell>        <mxCell id="BcmVmxXIoH-75" value="1" style="ellipse;whiteSpace=wrap;html=1;aspect=fixed;" vertex="1" parent="1">
          <mxGeometry x="180" y="1080" width="40" height="40" as="geometry" />
        </mxCell>        <mxCell id="BcmVmxXIoH-76" value="1" style="ellipse;whiteSpace=wrap;html=1;aspect=fixed;" vertex="1" parent="1">
          <mxGeometry x="180" y="1200" width="40" height="40" as="geometry" />
        </mxCell>        <mxCell id="BcmVmxXIoH-77" value="" style="endArrow=none;html=1;rounded=0;" edge="1" parent="1">
          <mxGeometry width="50" height="50" relative="1" as="geometry">
            <mxPoint x="200" y="1240" as="sourcePoint" />
            <mxPoint x="200" y="1340" as="targetPoint" />
          </mxGeometry>
        </mxCell>        <mxCell id="BcmVmxXIoH-78" value="" style="endArrow=none;html=1;rounded=0;" edge="1" parent="1">
          <mxGeometry width="50" height="50" relative="1" as="geometry">
            <mxPoint x="80" y="80" as="sourcePoint" />
            <mxPoint x="80" y="1020" as="targetPoint" />
          </mxGeometry>
        </mxCell>      </root>
    </mxGraphModel>
  </diagram>
</mxfile>
